<svg id="Camada_1" data-name="Camada 1" xmlns="http://www.w3.org/2000/svg" viewBox="0 0 24 24"><defs><style>.cls-1{fill:#f2f2f2;fill-rule:evenodd;}</style></defs><path class="cls-1" d="M19,24H5a5,5,0,0,1-5-5V5A5,5,0,0,1,5,0H19a5,5,0,0,1,5,5V19A5,5,0,0,1,19,24Zm1-5.65v-.27l-1.25-1.22a.38.38,0,0,1-.14-.36v-9a.38.38,0,0,1,.14-.36L20,5.92V5.65H15.58l-3.15,7.86L8.84,5.65H4.2v.27l1.5,1.8a.63.63,0,0,1,.2.52v7.07a.81.81,0,0,1-.22.7L4,18.05v.27H8.77v-.27L7.09,16a.82.82,0,0,1-.24-.7V9.2L11,18.32h.48L15.11,9.2v7.27c0,.19,0,.23-.12.36L13.7,18.08v.27Z"/></svg>