<?xml version="1.0" encoding="utf-8"?>
<!-- Generator: Adobe Illustrator 25.0.0, SVG Export Plug-In . SVG Version: 6.00 Build 0)  -->
<svg version="1.1" id="Camada_1" xmlns="http://www.w3.org/2000/svg" xmlns:xlink="http://www.w3.org/1999/xlink" x="0px" y="0px"
	 viewBox="0 0 24 24" style="enable-background:new 0 0 24 24;" xml:space="preserve">
<style type="text/css">
	.st0{fill:#F2F2F2;}
</style>
<path class="st0" d="M12,5.3c-3.6,0-6.6,3-6.6,6.6c0,1.5,0.4,2.6,1.2,3.8l-0.7,2.4l2.5-0.7c1.1,0.7,2.2,1.1,3.6,1.1
	c3.6,0,6.6-3,6.6-6.6C18.6,8.3,15.7,5.3,12,5.3z M15.9,14.8c-0.2,0.5-1,0.9-1.3,0.9c-0.3,0.1-0.8,0.1-1.2-0.1
	c-0.3-0.1-0.7-0.2-1.1-0.4c-2-0.9-3.3-2.9-3.4-3S8,11.1,8,10.2s0.5-1.5,0.7-1.7c0.2-0.2,0.4-0.2,0.5-0.2l0.4,0c0.1,0,0.3,0,0.4,0.3
	c0.2,0.4,0.6,1.4,0.6,1.5c0,0.1,0.1,0.2,0,0.3c-0.1,0.1-0.1,0.2-0.2,0.3l-0.3,0.3c-0.1,0.1-0.2,0.2-0.1,0.4c0.1,0.2,0.5,0.8,1.1,1.4
	c0.8,0.7,1.4,0.9,1.6,1s0.3,0.1,0.4-0.1c0.1-0.1,0.5-0.6,0.6-0.8s0.3-0.2,0.4-0.1s1.2,0.5,1.4,0.6c0.2,0.1,0.3,0.1,0.4,0.2
	C16.1,13.9,16.1,14.3,15.9,14.8z M19,0H5C2.2,0,0,2.2,0,5v14c0,2.8,2.2,5,5,5h14c2.8,0,5-2.2,5-5V5C24,2.2,21.8,0,19,0z M12,19.9
	c-1.3,0-2.6-0.3-3.8-1L4,20l1.1-4.1c-0.7-1.2-1.1-2.6-1.1-4C4.1,7.6,7.7,4,12,4c2.1,0,4.1,0.8,5.6,2.3S20,9.8,20,11.9
	C20,16.3,16.4,19.9,12,19.9z"/>
</svg>
